<svg version="1.1" xmlns="http://www.w3.org/2000/svg" xmlns:xlink="http://www.w3.org/1999/xlink" width="800"
    height="619.27791" viewBox="0,0,800,619.27791">
    <g transform="translate(160,129.63895)">
        <g data-paper-data="{&quot;isPaintingLayer&quot;:true}" fill="#ffffff" fill-rule="nonzero" stroke="none"
            stroke-width="1" stroke-linecap="butt" stroke-linejoin="miter" stroke-miterlimit="10" stroke-dasharray=""
            stroke-dashoffset="0" style="mix-blend-mode: normal">
            <path
                d="M636.59984,385.84768c-69.27789,51.79968 -136.47876,83.22603 -202.54789,103.79128c-16.35964,-22.42843 -30.83197,-46.33623 -43.35338,-71.39989c23.84748,-9.06261 46.75077,-20.24503 68.3962,-33.29063c-5.66304,-4.24179 -11.26247,-8.6766 -16.73688,-13.23971c-130.06123,61.56853 -273.08473,61.56853 -404.71854,0c-5.41081,4.56311 -11.01134,8.99791 -16.73688,13.23971c21.58183,12.982 44.4226,24.16441 68.27009,33.22593c-12.52141,25.12836 -27.05625,48.97145 -43.35338,71.40098c-66.00553,-20.56525 -133.1441,-51.99269 -202.42194,-103.72767c-14.15759,-151.73409 14.15754,-305.65377 118.60921,-463.49394c51.78543,-24.29272 107.22046,-41.96613 165.17229,-51.99269c7.17311,12.85369 15.66766,30.14218 21.39321,43.89512c60.4061,-9.25453 121.37806,-9.25453 182.91588,0c5.72664,-13.75293 14.03258,-31.04143 21.14208,-43.89512c57.88931,10.02656 113.26074,27.63527 165.04617,51.86438c90.54609,135.21763 135.53565,287.72374 118.92378,463.62224zM179.02665,210.72011c0.69198,-44.98737 -31.71257,-81.87607 -71.92079,-81.87607c-40.20713,0 -71.92079,36.9534 -71.92079,81.87607c0,44.92267 32.40564,81.81247 71.92079,81.81247c40.20822,0 71.9833,-36.8898 71.92079,-81.81247zM444.81216,210.72011c0.69198,-44.98737 -31.71367,-81.87607 -71.92079,-81.87607c-40.20822,0 -71.92079,36.9534 -71.92079,81.87607c0,44.92267 32.40564,81.81247 71.92079,81.81247c40.20713,0 71.92079,-36.8898 71.92079,-81.81247z" />
        </g>
    </g>
</svg>