<svg version="1.1" xmlns="http://www.w3.org/2000/svg" xmlns:xlink="http://www.w3.org/1999/xlink" width="95.999"
    height="96" viewBox="0,0,95.999,96">
    <g transform="translate(-192.0005,-132)">
        <g data-paper-data="{&quot;isPaintingLayer&quot;:true}" fill="#ffffff" fill-rule="nonzero" stroke="none"
            stroke-width="1" stroke-linecap="butt" stroke-linejoin="miter" stroke-miterlimit="10" stroke-dasharray=""
            stroke-dashoffset="0" style="mix-blend-mode: normal">
            <path
                d="M239.9895,132c13.04,0 14.67,0.057 19.79,0.29c5.11,0.234 8.6,1.043 11.66,2.23c3.16,1.225 5.83,2.865 8.5,5.535c2.67,2.668 4.31,5.346 5.54,8.503c1.18,3.052 1.99,6.54 2.23,11.65c0.23,5.12 0.29,6.756 0.29,19.792c0,13.036 -0.06,14.668 -0.29,19.788c-0.24,5.108 -1.05,8.597 -2.23,11.65c-1.23,3.156 -2.87,5.834 -5.54,8.502c-2.667,2.67 -5.341,4.314 -8.497,5.54c-3.054,1.187 -6.546,1.996 -11.656,2.23c-5.12,0.233 -6.751,0.29 -19.788,0.29c-13.035,0 -14.67,-0.057 -19.79,-0.29c-5.109,-0.234 -8.598,-1.043 -11.652,-2.23c-3.155,-1.226 -5.833,-2.87 -8.5,-5.54c-2.669,-2.668 -4.309,-5.346 -5.536,-8.503c-1.186,-3.052 -1.995,-6.54 -2.23,-11.65c-0.232,-5.12 -0.29,-6.751 -0.29,-19.787c0,-13.036 0.06,-14.673 0.289,-19.793c0.23,-5.108 1.04,-8.597 2.23,-11.65c1.23,-3.156 2.87,-5.834 5.54,-8.502c2.668,-2.669 5.346,-4.309 8.503,-5.535c3.052,-1.187 6.54,-1.996 11.65,-2.23c5.12,-0.233 6.756,-0.29 19.792,-0.29zM235.6985,140.638c-8.946,0.01 -10.662,0.07 -15.09,0.27c-4.68,0.215 -7.221,0.995 -8.913,1.655c-2.24,0.872 -3.84,1.912 -5.52,3.592c-1.68,1.68 -2.722,3.28 -3.592,5.52c-0.657,1.692 -1.439,4.232 -1.653,8.912c-0.23,5.06 -0.276,6.572 -0.276,19.39c0,12.818 0.046,14.338 0.276,19.398c0.213,4.68 0.996,7.22 1.653,8.91c0.872,2.241 1.912,3.837 3.592,5.517c1.68,1.68 3.28,2.72 5.52,3.59c1.693,0.657 4.233,1.439 8.913,1.655c5.06,0.23 6.579,0.28 19.396,0.28c12.816,0 14.336,-0.05 19.396,-0.28c4.68,-0.214 7.222,-0.994 8.912,-1.654c2.241,-0.87 3.836,-1.91 5.516,-3.59c1.68,-1.679 2.722,-3.274 3.592,-5.514c0.657,-1.69 1.439,-4.23 1.653,-8.91c0.23,-5.06 0.28,-6.58 0.28,-19.39c0,-12.81 -0.05,-14.33 -0.28,-19.39c-0.213,-4.68 -0.996,-7.22 -1.653,-8.91c-0.872,-2.24 -1.912,-3.84 -3.592,-5.52c-1.679,-1.68 -3.276,-2.72 -5.516,-3.59c-1.692,-0.657 -4.232,-1.439 -8.912,-1.653c-5.061,-0.23 -6.58,-0.276 -19.396,-0.276c-1.602,0 -3.028,-0.002 -4.306,0zM265.6265,148.618c3.18,0 5.76,2.58 5.76,5.76c0,3.18 -2.58,5.76 -5.76,5.76c-3.18,0 -5.76,-2.58 -5.76,-5.76c0,-3.181 2.58,-5.758 5.76,-5.758zM240.0035,155.35c13.613,0 24.647,11.037 24.647,24.65c0,13.613 -11.033,24.645 -24.646,24.645c-13.613,0 -24.65,-11.032 -24.65,-24.645c0,-13.613 11.037,-24.65 24.65,-24.65zM224.0045,180c0,8.836 7.163,16 16,16c8.836,0 16,-7.164 16,-16c0,-8.837 -7.164,-16 -16,-16c-8.837,0 -16,7.163 -16,16z" />
        </g>
    </g>
</svg>